<svg xmlns="http://www.w3.org/2000/svg" viewBox="0 0 64 64" x="0px" y="0px"><defs><style>.cls-1{fill:#000000;}</style></defs><g data-name="greeting card"><path class="cls-1" d="M51,61H13a1,1,0,0,1-1-1V11a1,1,0,0,1,1-1H51a1,1,0,0,1,1,1V60A1,1,0,0,1,51,61ZM14,59H50V12H14Z"></path><path class="cls-1" d="M32,41c-5.66,0-9.471-3.656-9.945-9.542C22.019,31.037,22,30.6,22,30.143a20.09,20.09,0,0,1,.928-5.895C24.677,18.63,28.238,15,32,15s7.324,3.63,9.072,9.249A20.078,20.078,0,0,1,42,30.143q0,.681-.056,1.319C41.471,37.344,37.66,41,32,41Zm0-24c-2.824,0-5.7,3.152-7.163,7.843a18.1,18.1,0,0,0-.837,5.3c0,.395.016.777.048,1.149C24.437,36.12,27.41,39,32,39s7.563-2.88,7.951-7.7c.032-.377.049-.759.049-1.154a18.052,18.052,0,0,0-.838-5.3C37.7,20.152,34.824,17,32,17Z"></path><path class="cls-1" d="M28.571,33.715a1.008,1.008,0,0,1-.707-.293L25.143,30.7l-1.385,1.384a1,1,0,0,1-1.7-.622Q22,30.825,22,30.143a20.09,20.09,0,0,1,.928-5.895,1.014,1.014,0,0,1,.248-.409l1.26-1.26a1.029,1.029,0,0,1,1.414,0L28.571,25.3l2.722-2.721a1,1,0,0,1,1.414,0L35.429,25.3l2.721-2.721a1,1,0,0,1,.707-.293h0a1,1,0,0,1,.707.293l1.26,1.26a1.014,1.014,0,0,1,.248.409,20.09,20.09,0,0,1,.928,5.9q0,.681-.056,1.319a1,1,0,0,1-1.7.622L38.857,30.7l-2.721,2.722a1,1,0,0,1-1.414,0L32,30.7l-2.722,2.722A1,1,0,0,1,28.571,33.715ZM32,28.286a.993.993,0,0,1,.707.293L35.429,31.3l2.721-2.721a1,1,0,0,1,.707-.293h0a1,1,0,0,1,.707.293l.392.391a18.46,18.46,0,0,0-.723-3.894l-.376-.376-2.721,2.721a1,1,0,0,1-1.414,0L32,24.7l-2.722,2.721a1.029,1.029,0,0,1-1.414,0L25.143,24.7l-.376.377a18.436,18.436,0,0,0-.723,3.894l.392-.392a1,1,0,0,1,1.414,0L28.571,31.3l2.722-2.721A.993.993,0,0,1,32,28.286Z"></path><path class="cls-1" d="M48,12H13a1,1,0,0,1-.2-1.98l35-7A1,1,0,0,1,49,4v7A1,1,0,0,1,48,12ZM23.1,10H47V5.22Z"></path><path class="cls-1" d="M42,47H22a1,1,0,0,1,0-2H42a1,1,0,0,1,0,2Z"></path><path class="cls-1" d="M46,52H18a1,1,0,0,1,0-2H46a1,1,0,0,1,0,2Z"></path></g></svg>