<svg xmlns:dc="http://purl.org/dc/elements/1.1/" xmlns:cc="http://creativecommons.org/ns#" xmlns:rdf="http://www.w3.org/1999/02/22-rdf-syntax-ns#" xmlns:svg="http://www.w3.org/2000/svg" xmlns="http://www.w3.org/2000/svg" xmlns:sodipodi="http://sodipodi.sourceforge.net/DTD/sodipodi-0.dtd" xmlns:inkscape="http://www.inkscape.org/namespaces/inkscape" viewBox="0 0 16.933332 16.933332" version="1.1" x="0px" y="0px"><g transform="translate(81.64286,-139.45952)"><path style="color:#000000;font-style:normal;font-variant:normal;font-weight:normal;font-stretch:normal;font-size:medium;line-height:normal;font-family:sans-serif;font-variant-ligatures:normal;font-variant-position:normal;font-variant-caps:normal;font-variant-numeric:normal;font-variant-alternates:normal;font-feature-settings:normal;text-indent:0;text-align:start;text-decoration:none;text-decoration-line:none;text-decoration-style:solid;text-decoration-color:#000000;letter-spacing:normal;word-spacing:normal;text-transform:none;writing-mode:lr-tb;direction:ltr;text-orientation:mixed;dominant-baseline:auto;baseline-shift:baseline;text-anchor:start;white-space:normal;shape-padding:0;clip-rule:nonzero;display:inline;overflow:visible;visibility:visible;opacity:1;isolation:auto;mix-blend-mode:normal;color-interpolation:sRGB;color-interpolation-filters:linearRGB;solid-color:#000000;solid-opacity:1;vector-effect:none;fill:#000000;fill-opacity:1;fill-rule:nonzero;stroke:none;stroke-width:0.52916664;stroke-linecap:round;stroke-linejoin:round;stroke-miterlimit:4;stroke-dasharray:none;stroke-dashoffset:0;stroke-opacity:1;color-rendering:auto;image-rendering:auto;shape-rendering:auto;text-rendering:auto;enable-background:accumulate" d="m -77.314184,140.51785 c -0.27863,0 -0.511431,0.2323 -0.511431,0.51092 v 13.79484 c 0,0.27863 0.232801,0.51091 0.511431,0.51091 h 8.276491 c 0.27863,0 0.51092,-0.23228 0.51092,-0.51091 v -13.79484 c 0,-0.27862 -0.23229,-0.51092 -0.51092,-0.51092 z m 0,0.51092 h 8.276491 v 13.79484 h -8.276491 z m 1.487849,0.70152 c -0.27863,0 -0.511431,0.2328 -0.511431,0.51141 v 3.57246 a 0.25548543,0.25548543 0 0 0 0,0.16615 v 0.41162 c 0,0.27863 0.232801,0.51142 0.511431,0.51142 h 5.300792 c 0.27863,0 0.51092,-0.23279 0.51092,-0.51142 v -0.96796 a 0.25548543,0.25548543 0 0 0 0,-0.16764 v -3.01463 c 0,-0.27861 -0.23229,-0.5114 -0.51092,-0.51141 z m 0,0.51141 h 5.300792 v 2.46779 l -0.875154,-0.87665 a 0.25548543,0.25548543 0 0 0 -0.361731,0 l -0.937513,0.93752 -1.13511,-1.1351 a 0.25548543,0.25548543 0 0 0 -0.184595,-0.0758 0.25548543,0.25548543 0 0 0 -0.175629,0.0758 l -1.63106,1.63105 z m 1.810163,1.93442 1.135111,1.13559 a 0.25548543,0.25548543 0 0 0 0.362242,0 l 0.937001,-0.93552 1.056275,1.05427 v 0.96147 h -5.300792 v -0.40514 z m -1.959352,3.4946 a 0.25586639,0.25586639 0 0 0 0.02645,0.51093 h 3.952653 a 0.25552425,0.25552425 0 1 0 0,-0.51093 h -3.952653 a 0.25548543,0.25548543 0 0 0 -0.02645,0 z m 0,1.4689 a 0.25586639,0.25586639 0 0 0 0.02645,0.51092 h 3.952653 a 0.25552425,0.25552425 0 1 0 0,-0.51092 h -3.952653 a 0.25548543,0.25548543 0 0 0 -0.02645,0 z m 0,1.46889 a 0.25605676,0.25605676 0 0 0 0.02645,0.51143 h 3.952653 a 0.255715,0.255715 0 0 0 0,-0.51143 h -3.952653 a 0.25548543,0.25548543 0 0 0 -0.02645,0 z m 1.291784,1.4694 a 0.25581832,0.25581832 0 0 0 0.02452,0.51092 h 2.662863 a 0.25552425,0.25552425 0 0 0 0,-0.51092 h -2.662863 a 0.25548543,0.25548543 0 0 0 -0.02452,0 z m 0,1.4689 a 0.25581348,0.25581348 0 0 0 0.02452,0.51091 h 2.662863 a 0.25551942,0.25551942 0 0 0 0,-0.51091 h -2.662863 a 0.25548543,0.25548543 0 0 0 -0.02452,0 z"></path></g></svg>