<svg xmlns="http://www.w3.org/2000/svg" xmlns:xlink="http://www.w3.org/1999/xlink" viewBox="0 0 60 42" version="1.1" x="0px" y="0px"><title>63 -Postcard- (Outline)</title><desc>Created with Sketch.</desc><g stroke="none" stroke-width="1" fill="none" fill-rule="evenodd"><g transform="translate(-355.000000, -1055.000000)" fill="#000000"><g transform="translate(355.000000, 1055.000000)"><path d="M4.0001,2 C2.8971,2 2.0001,2.897 2.0001,4 L2.0001,38 C2.0001,39.103 2.8971,40 4.0001,40 L56.0001,40 C57.1031,40 58.0001,39.103 58.0001,38 L58.0001,4 C58.0001,2.897 57.1031,2 56.0001,2 L4.0001,2 Z M56.0001,42 L4.0001,42 C1.7941,42 0.0001,40.206 0.0001,38 L0.0001,4 C0.0001,1.794 1.7941,0 4.0001,0 L56.0001,0 C58.2061,0 60.0001,1.794 60.0001,4 L60.0001,38 C60.0001,40.206 58.2061,42 56.0001,42 L56.0001,42 Z"></path><path d="M25.0001,25 L20.0001,25 C19.4481,25 19.0001,24.553 19.0001,24 C19.0001,23.447 19.4481,23 20.0001,23 L25.0001,23 C25.5521,23 26.0001,23.447 26.0001,24 C26.0001,24.553 25.5521,25 25.0001,25"></path><path d="M16.0001,25 L6.0001,25 C5.4481,25 5.0001,24.553 5.0001,24 C5.0001,23.447 5.4481,23 6.0001,23 L16.0001,23 C16.5521,23 17.0001,23.447 17.0001,24 C17.0001,24.553 16.5521,25 16.0001,25"></path><path d="M25.0001,29 L15.0001,29 C14.4481,29 14.0001,28.553 14.0001,28 C14.0001,27.447 14.4481,27 15.0001,27 L25.0001,27 C25.5521,27 26.0001,27.447 26.0001,28 C26.0001,28.553 25.5521,29 25.0001,29"></path><path d="M11.0006,29 L6.0006,29 C5.4476,29 5.0006,28.553 5.0006,28 C5.0006,27.447 5.4476,27 6.0006,27 L11.0006,27 C11.5526,27 12.0006,27.447 12.0006,28 C12.0006,28.553 11.5526,29 11.0006,29"></path><path d="M25.0001,33 L20.0001,33 C19.4481,33 19.0001,32.553 19.0001,32 C19.0001,31.447 19.4481,31 20.0001,31 L25.0001,31 C25.5521,31 26.0001,31.447 26.0001,32 C26.0001,32.553 25.5521,33 25.0001,33"></path><path d="M16.0001,33 L6.0001,33 C5.4481,33 5.0001,32.553 5.0001,32 C5.0001,31.447 5.4481,31 6.0001,31 L16.0001,31 C16.5521,31 17.0001,31.447 17.0001,32 C17.0001,32.553 16.5521,33 16.0001,33"></path><path d="M25.0001,37 L15.0001,37 C14.4481,37 14.0001,36.553 14.0001,36 C14.0001,35.447 14.4481,35 15.0001,35 L25.0001,35 C25.5521,35 26.0001,35.447 26.0001,36 C26.0001,36.553 25.5521,37 25.0001,37"></path><path d="M11.0006,37 L6.0006,37 C5.4476,37 5.0006,36.553 5.0006,36 C5.0006,35.447 5.4476,35 6.0006,35 L11.0006,35 C11.5526,35 12.0006,35.447 12.0006,36 C12.0006,36.553 11.5526,37 11.0006,37"></path><path d="M45,15 L53,15 L53,7 L45,7 L45,15 Z M54,17 L44,17 C43.448,17 43,16.553 43,16 L43,6 C43,5.447 43.448,5 44,5 L54,5 C54.552,5 55,5.447 55,6 L55,16 C55,16.553 54.552,17 54,17 L54,17 Z"></path><path d="M50.0001,12 L48.0001,12 C47.4481,12 47.0001,11.553 47.0001,11 C47.0001,10.447 47.4481,10 48.0001,10 L50.0001,10 C50.5521,10 51.0001,10.447 51.0001,11 C51.0001,11.553 50.5521,12 50.0001,12"></path><path d="M30.0001,37 C29.4481,37 29.0001,36.553 29.0001,36 L29.0001,6 C29.0001,5.447 29.4481,5 30.0001,5 C30.5521,5 31.0001,5.447 31.0001,6 L31.0001,36 C31.0001,36.553 30.5521,37 30.0001,37"></path></g></g></g></svg>