<svg xmlns:dc="http://purl.org/dc/elements/1.1/" xmlns:cc="http://creativecommons.org/ns#" xmlns:rdf="http://www.w3.org/1999/02/22-rdf-syntax-ns#" xmlns:svg="http://www.w3.org/2000/svg" xmlns="http://www.w3.org/2000/svg" xmlns:sodipodi="http://sodipodi.sourceforge.net/DTD/sodipodi-0.dtd" xmlns:inkscape="http://www.inkscape.org/namespaces/inkscape" viewBox="0 0 16.933332 16.933332" version="1.1" x="0px" y="0px"><g transform="translate(81.64286,-139.45952)"><path style="color:#000000;font-style:normal;font-variant:normal;font-weight:normal;font-stretch:normal;font-size:medium;line-height:normal;font-family:sans-serif;font-variant-ligatures:normal;font-variant-position:normal;font-variant-caps:normal;font-variant-numeric:normal;font-variant-alternates:normal;font-feature-settings:normal;text-indent:0;text-align:start;text-decoration:none;text-decoration-line:none;text-decoration-style:solid;text-decoration-color:#000000;letter-spacing:normal;word-spacing:normal;text-transform:none;writing-mode:lr-tb;direction:ltr;text-orientation:mixed;dominant-baseline:auto;baseline-shift:baseline;text-anchor:start;white-space:normal;shape-padding:0;clip-rule:nonzero;display:inline;overflow:visible;visibility:visible;opacity:1;isolation:auto;mix-blend-mode:normal;color-interpolation:sRGB;color-interpolation-filters:linearRGB;solid-color:#000000;solid-opacity:1;vector-effect:none;fill:#000000;fill-opacity:1;fill-rule:nonzero;stroke:none;stroke-width:0.52916664;stroke-linecap:round;stroke-linejoin:round;stroke-miterlimit:4;stroke-dasharray:none;stroke-dashoffset:0;stroke-opacity:1;color-rendering:auto;image-rendering:auto;shape-rendering:auto;text-rendering:auto;enable-background:accumulate" d="m -80.073606,143.27777 c -0.278631,0 -0.51092,0.2323 -0.51092,0.51092 v 8.27649 c 0,0.27863 0.23229,0.50943 0.51092,0.50943 h 13.794825 c 0.278605,0 0.51092,-0.2308 0.51092,-0.50943 v -8.27649 c 0,-0.27862 -0.232315,-0.51092 -0.51092,-0.51092 z m 0,0.51092 h 13.794825 v 8.27649 h -13.794825 z m 1.288258,0.97693 c -0.320296,0 -0.586766,0.26596 -0.586766,0.58626 v 5.15011 c 0,0.3203 0.26647,0.58626 0.586766,0.58626 h 5.374643 c 0.320296,0 0.586254,-0.26596 0.586254,-0.58626 v -5.15011 c 0,-0.3203 -0.265958,-0.58626 -0.586254,-0.58626 z m 10.897452,0.14969 a 0.25548529,0.25548529 0 0 0 -0.02792,9.6e-4 h -3.698188 a 0.25548529,0.25548529 0 0 0 -0.02595,0 0.25548529,0.25548529 0 0 0 0.02595,0.50893 h 3.698188 a 0.25548529,0.25548529 0 1 0 0.02792,-0.50992 z m -10.897452,0.36123 h 5.374643 c 0.04605,0 0.07534,0.0293 0.07534,0.0753 v 3.52305 l -0.986407,-0.98491 a 0.25548529,0.25548529 0 0 0 -0.360249,0 l -0.937002,0.93552 -1.13562,-1.13361 a 0.25548529,0.25548529 0 0 0 -0.184596,-0.0753 0.25548529,0.25548529 0 0 0 -0.177136,0.0753 l -1.744305,1.74431 v -4.08436 c 0,-0.0461 0.02927,-0.0753 0.07534,-0.0753 z m 7.171341,1.01636 a 0.25552411,0.25552411 0 1 0 0,0.51091 h 3.698189 a 0.25552411,0.25552411 0 0 0 0,-0.51091 z m -0.02595,1.37858 a 0.25586478,0.25586478 0 0 0 0.02595,0.51091 h 3.698189 a 0.25552411,0.25552411 0 1 0 0,-0.51091 h -3.698189 a 0.25548529,0.25548529 0 0 0 -0.02595,0 z m -5.295298,0.56181 1.135109,1.1351 a 0.25548529,0.25548529 0 0 0 0.362218,0 l 0.937026,-0.93702 1.131609,1.13161 a 0.25548529,0.25548529 0 0 0 0.03393,0.0299 v 0.90907 c 0,0.0461 -0.02927,0.0753 -0.07534,0.0753 h -5.374643 c -0.04605,0 -0.07534,-0.0292 -0.07534,-0.0753 v -0.34876 a 0.25548529,0.25548529 0 0 0 0.03942,-0.0339 z m 6.53019,0.81478 a 0.25552411,0.25552411 0 1 0 0,0.51092 h 2.48925 a 0.25552411,0.25552411 0 0 0 0,-0.51092 z m 0,1.37858 a 0.25552411,0.25552411 0 1 0 0,0.51092 h 2.48925 a 0.25552411,0.25552411 0 0 0 0,-0.51092 z"></path></g></svg>