<svg xmlns="http://www.w3.org/2000/svg" xmlns:xlink="http://www.w3.org/1999/xlink" version="1.1" x="0px" y="0px" viewBox="0 0 81 80" style="enable-background:new 0 0 81 80;" xml:space="preserve"><g><g><path d="M51,1.4c3.4,0.9,6.6,2.2,9.6,4l0,0c3,1.8,5.8,3.9,8.3,6.4l0,0c2.5,2.5,4.6,5.3,6.4,8.3l0,0c1.7,3,3.1,6.2,4,9.6l0,0    c0.9,3.4,1.4,6.9,1.4,10.4h0c0,1.6-0.1,3.1-0.3,4.7c0,0.4-0.1,0.7-0.1,1.1c-0.2,1.6-0.5,3.1-0.9,4.6l0,0c-0.9,3.4-2.3,6.6-4,9.6    l0,0c-1.8,3-3.9,5.8-6.4,8.3l0,0c-2.5,2.5-5.3,4.6-8.3,6.4l0,0c-3,1.7-6.2,3.1-9.6,4l0,0c-3.4,0.9-6.9,1.4-10.4,1.4v0    c-1.7,0-3.4-0.1-5.1-0.3c-0.1,0-0.1,0-0.2,0c-1.7-0.2-3.4-0.6-5-1l0,0c-3.4-0.9-6.6-2.3-9.6-4l0,0c-3-1.8-5.8-3.9-8.3-6.4l0,0    C9.9,65.8,7.7,63,6,60l0,0c-1.7-3-3.1-6.2-4-9.6l0,0c0,0,0-0.1,0-0.1l12.6-3.3c1.3,4.9,3.9,9.3,7.6,12.7c3.7,3.5,8.2,5.8,13.2,6.8    c4.9,1,10.1,0.6,14.8-1.2c4.7-1.8,8.9-4.8,11.9-8.8c3.1-4,5-8.8,5.5-13.8c0.5-5-0.4-10.1-2.6-14.6c-2.2-4.5-5.7-8.3-10-11    c-4.3-2.7-9.2-4.1-14.3-4.1v0V0c0,0,0,0,0,0v0c1.6,0,3.2,0.1,4.9,0.3c0.2,0,0.5,0.1,0.7,0.1C47.9,0.6,49.5,1,51,1.4L51,1.4z"></path><path d="M27.2,16.6c2-1.2,4.2-2.1,6.5-2.7L30.3,1.3c-3.4,0.9-6.6,2.3-9.6,4L27.2,16.6z"></path><path d="M21.6,20.9c-1.7,1.7-3.1,3.5-4.3,5.6L6,20c1.8-3,3.9-5.8,6.4-8.3L21.6,20.9z"></path><path d="M1,34.8c0.2-1.8,0.6-3.5,1-5.1L14.6,33c-0.3,1.1-0.5,2.3-0.7,3.5c-0.2,1.2-0.2,2.4-0.2,3.5l-13,0    C0.7,38.3,0.8,36.5,1,34.8z"></path></g></g></svg>